<svg xmlns="http://www.w3.org/2000/svg" width="29.675" height="24.525" viewBox="0 0 29.675 24.525">
    <defs>
        <style>
            .cls-1{fill:#aaa;stroke:#aaa;stroke-miterlimit:10;stroke-width:.25px}
        </style>
    </defs>
    <g id="구성_요소" data-name="구성 요소" transform="translate(-210.531 -713.736)">
        <g id="그룹_442" data-name="그룹 442">
            <g id="그룹_292" data-name="그룹 292">
                <g id="그룹_291" data-name="그룹 291">
                    <path id="패스_990" d="M237.344 716.417a.571.571 0 1 0 .167.4.574.574 0 0 0-.167-.4z" class="cls-1" data-name="패스 990"/>
                </g>
            </g>
            <g id="그룹_294" data-name="그룹 294">
                <g id="그룹_293" data-name="그룹 293">
                    <path id="패스_991" d="M224.24 729.854a.571.571 0 1 0-.4.974.568.568 0 0 0 .569-.57.577.577 0 0 0-.169-.404z" class="cls-1" data-name="패스 991"/>
                </g>
            </g>
        </g>
        <g id="그룹_296" data-name="그룹 296">
            <g id="그룹_295" data-name="그룹 295">
                <path id="패스_992" d="M238.725 718.312a.57.57 0 0 0-.778-.214.57.57 0 0 0-.214.778 7.666 7.666 0 0 1-1.244 9.185l-.433.432a2.134 2.134 0 0 0-.487-.752l-5.862-5.862a3.948 3.948 0 0 0 1.048-.75L231.88 720a.571.571 0 0 0-.807-.807l-1.125 1.125a2.777 2.777 0 0 1-1.977.819h-2.246a.57.57 0 0 0-.4.167l-1.721 1.721a1.311 1.311 0 0 1-1.854-1.854l3.929-3.928a7.678 7.678 0 0 1 9.114-1.284.57.57 0 1 0 .552-1 8.844 8.844 0 0 0-5.426-1.022 8.7 8.7 0 0 0-4.65 2.122 8.788 8.788 0 0 0-12.035 12.8l.215.215a.593.593 0 0 0 .123.093 2.145 2.145 0 0 0 2.142 1.981h.086v.087a2.146 2.146 0 0 0 2.15 2.149h.085v.087a2.149 2.149 0 0 0 2.15 2.149h.087a2.149 2.149 0 0 0 3.667 1.607l.8-.8 1.077 1.077a2.148 2.148 0 0 0 3.666-1.628h.107a2.144 2.144 0 0 0 2.147-2.235h.087a2.146 2.146 0 0 0 2.147-2.236h.087a2.138 2.138 0 0 0 1.52-.63 2.114 2.114 0 0 0 .466-.7.545.545 0 0 0 .154-.109l1.107-1.107a8.807 8.807 0 0 0 1.421-10.547zm-23.015 11.7a1.008 1.008 0 0 1-.71-1.722l.983-.984a1.009 1.009 0 0 1 1.427 1.427l-.983.984a1 1 0 0 1-.713.294zm1.521 1.938a1.008 1.008 0 0 1 0-1.427l.983-.983a1.01 1.01 0 0 1 1.427 0 1.011 1.011 0 0 1 0 1.427l-.983.984a1.011 1.011 0 0 1-1.426 0zm2.233 2.234a1.01 1.01 0 0 1 0-1.427l.984-.983a1.008 1.008 0 0 1 1.427 0 1.011 1.011 0 0 1 0 1.427l-.984.983a1.01 1.01 0 0 1-1.426 0zm4.644 1.25l-.983.983a1.009 1.009 0 0 1-1.427-1.427l.984-.983a1.009 1.009 0 0 1 1.427 1.427zm10.654-5.459a1.008 1.008 0 0 1-1.427 0l-2.375-2.375-2.234-2.233a.57.57 0 0 0-.807.806l4.609 4.609a1.009 1.009 0 1 1-1.427 1.427l-4.608-4.609a.571.571 0 1 0-.807.807l2.233 2.234 2.375 2.375a1.009 1.009 0 0 1-1.427 1.427l-2.375-2.375a.548.548 0 0 0-.146-.106l-.677-.677a.57.57 0 0 0-.807.806l3.178 3.178a1.009 1.009 0 0 1-1.427 1.427l-1.209-1.21a2.162 2.162 0 0 0 .141-.767 2.151 2.151 0 0 0-2.15-2.15h-.087a2.149 2.149 0 0 0-2.147-2.236h-.087a2.149 2.149 0 0 0-2.147-2.236h-.087a2.148 2.148 0 0 0-3.667-1.606l-.983.984a2.094 2.094 0 0 0-.317.4 7.647 7.647 0 0 1 10.572-11.024l-3.506 3.506a2.452 2.452 0 0 0 3.467 3.467l1.554-1.553h2.011a4.063 4.063 0 0 0 .493-.032l6.3 6.3a1.01 1.01 0 0 1 0 1.427z" class="cls-1" data-name="패스 992"/>
            </g>
        </g>
    </g>
</svg>
