<svg xmlns="http://www.w3.org/2000/svg" width="20.197" height="23.779" viewBox="0 0 20.197 23.779">
    <defs>
        <style>
            .cls-1{fill:#aaa;stroke:#aaa;stroke-width:.25px}
        </style>
    </defs>
    <g id="구성_요소-3" data-name="구성 요소-3" transform="translate(-298.441 -713.858)">
        <g id="그룹_441" data-name="그룹 441">
            <path id="패스_1004" d="M308.389 725.5a5.76 5.76 0 1 0-4.072-1.687 5.574 5.574 0 0 0 4.072 1.687zm-3.081-8.84a4.355 4.355 0 1 1-1.277 3.081 4.161 4.161 0 0 1 1.277-3.081z" class="cls-1" data-name="패스 1004"/>
            <path id="패스_1005" d="M318.465 731.988a14.212 14.212 0 0 0-.193-1.511 12.016 12.016 0 0 0-.372-1.519 7.546 7.546 0 0 0-.625-1.416 5.356 5.356 0 0 0-.941-1.227 4.15 4.15 0 0 0-1.353-.85 4.658 4.658 0 0 0-1.727-.313 1.752 1.752 0 0 0-.936.4c-.28.183-.608.394-.975.628a5.561 5.561 0 0 1-1.261.556 4.887 4.887 0 0 1-3.086 0 5.583 5.583 0 0 1-1.261-.555c-.363-.232-.691-.444-.975-.629a1.747 1.747 0 0 0-.935-.4 4.651 4.651 0 0 0-1.727.313 4.139 4.139 0 0 0-1.353.85 5.3 5.3 0 0 0-.941 1.227 7.485 7.485 0 0 0-.625 1.416 12.021 12.021 0 0 0-.372 1.519 14.244 14.244 0 0 0-.193 1.511c-.032.457-.048.932-.048 1.412a3.972 3.972 0 0 0 1.179 3 4.246 4.246 0 0 0 3.038 1.108H314.3a4.246 4.246 0 0 0 3.038-1.108 3.967 3.967 0 0 0 1.179-3 20.209 20.209 0 0 0-.052-1.412zm-2.1 3.4a2.855 2.855 0 0 1-2.072.722h-11.509a2.859 2.859 0 0 1-2.073-.722 2.6 2.6 0 0 1-.744-1.989c0-.448.015-.89.045-1.315a12.459 12.459 0 0 1 .175-1.36 10.407 10.407 0 0 1 .326-1.339 6.108 6.108 0 0 1 .509-1.152 3.94 3.94 0 0 1 .691-.907 2.769 2.769 0 0 1 .9-.56 3.255 3.255 0 0 1 1.1-.212 3.087 3.087 0 0 1 .278.168c.288.187.62.4.987.636a6.959 6.959 0 0 0 1.583.708 6.311 6.311 0 0 0 3.95 0 6.974 6.974 0 0 0 1.585-.708c.375-.24.7-.448.986-.636.142-.092.229-.142.278-.168a3.255 3.255 0 0 1 1.1.212 2.77 2.77 0 0 1 .9.56 3.973 3.973 0 0 1 .692.907 6.06 6.06 0 0 1 .508 1.151 10.468 10.468 0 0 1 .327 1.34 12.7 12.7 0 0 1 .175 1.36c.03.423.045.866.045 1.315a2.605 2.605 0 0 1-.747 1.99z" class="cls-1" data-name="패스 1005"/>
        </g>
    </g>
</svg>
