<svg xmlns="http://www.w3.org/2000/svg" width="26.782" height="26.782" viewBox="0 0 26.782 26.782">
    <defs>
        <style>
            .cls-1{fill:#aaa;stroke:#aaa;stroke-miterlimit:10;stroke-width:.25px}
        </style>
    </defs>
    <g id="구성_요소-2" data-name="구성 요소-2" transform="translate(-120.239 -712.164)">
        <g id="그룹_443" data-name="그룹 443">
            <path id="패스_993" d="M130.17 726.721c0 .373.194.675.433.675h1.729c.239 0 .433-.3.433-.675v-4.054c0-.373-.194-.675-.433-.675H130.6c-.239 0-.433.3-.433.675zm.865-3.378h.865v2.7h-.865z" class="cls-1" data-name="패스 993"/>
            <path id="패스_994" d="M127.366 720.443l6.264-3.758 6.263 3.758a.432.432 0 0 0 .445-.741l-6.275-3.765v-2.782h2.162v.864h-1.3a.432.432 0 0 0 0 .865h1.73a.432.432 0 0 0 .432-.432v-1.73a.433.433 0 0 0-.432-.432h-3.027a.432.432 0 0 0-.433.432v3.215l-6.275 3.765a.434.434 0 0 0-.148.594.433.433 0 0 0 .594.147z" class="cls-1" data-name="패스 994"/>
            <path id="패스_995" d="M125.414 728.72a.432.432 0 0 0 .432-.433v-2.594a.431.431 0 0 0-.432-.432h-1.729a.432.432 0 0 0-.433.432v.865a.432.432 0 0 0 .865 0v-.433h.864v2.162a.433.433 0 0 0 .433.433z" class="cls-1" data-name="패스 995"/>
            <path id="패스_996" d="M128.441 734.341V721.8a.432.432 0 1 0-.865 0v12.539a.432.432 0 0 0 .865 0z" class="cls-1" data-name="패스 996"/>
            <path id="패스_997" d="M126.279 738.708h14.7a.432.432 0 0 0 0-.864h-3.892v-4.325h.433a.432.432 0 0 0 0-.865h-7.783a.432.432 0 1 0 0 .865h.432v4.325h-3.891a.432.432 0 1 0 0 .864zm7.783-2.594a.432.432 0 0 0 0-.865v-1.729h2.162v4.325h-2.162v-1.73zm-3.027-2.594h2.165v1.73a.432.432 0 0 0 0 .865v1.729h-2.162z" class="cls-1" data-name="패스 997"/>
            <path id="패스_998" d="M146.463 721.8a.431.431 0 0 0-.432.432v.432h-4.756a.432.432 0 0 0 0 .865h4.756V737.8a.432.432 0 0 0 .865 0v-15.566a.432.432 0 0 0-.433-.432z" class="cls-1" data-name="패스 998"/>
            <path id="패스_999" d="M134.494 726.721c0 .373.194.675.433.675h1.729c.239 0 .433-.3.433-.675v-4.054c0-.373-.194-.675-.433-.675h-1.729c-.239 0-.433.3-.433.675zm.865-3.378h.865v2.7h-.865z" class="cls-1" data-name="패스 999"/>
            <path id="패스_1000" d="M141.413 730.633c0 .373.193.675.432.675h1.73c.238 0 .432-.3.432-.675v-4.054c0-.373-.194-.675-.432-.675h-1.73c-.239 0-.432.3-.432.675zm.864-3.378h.865v2.7h-.865z" class="cls-1" data-name="패스 1000"/>
            <path id="패스_1001" d="M124.835 734.064c0-.056-.025-5.621-2.162-5.621s-2.162 5.565-2.162 5.621a2.165 2.165 0 0 0 1.729 2.119v2.205a.433.433 0 1 0 .865 0v-2.205a2.167 2.167 0 0 0 1.73-2.119zm-2.162 1.3a1.3 1.3 0 0 1-1.3-1.3c0-2.154.578-4.756 1.3-4.756s1.3 2.6 1.3 4.756a1.3 1.3 0 0 1-1.3 1.298z" class="cls-1" data-name="패스 1001"/>
            <path id="패스_1002" d="M139.683 734.341v-12.972a.433.433 0 0 0-.865 0v12.972a.433.433 0 0 0 .865 0z" class="cls-1" data-name="패스 1002"/>
            <path id="패스_1003" d="M120.8 727.423a.432.432 0 0 0 .432-.433v-3.459h4.757a.432.432 0 0 0 0-.864h-4.756v-.433a.432.432 0 0 0-.865 0v4.756a.432.432 0 0 0 .432.433z" class="cls-1" data-name="패스 1003"/>
        </g>
    </g>
</svg>
