<svg xmlns="http://www.w3.org/2000/svg" width="19.681" height="23.027" viewBox="0 0 19.681 23.027">
    <defs>
        <style>
            .cls-1{fill:#fff}
        </style>
    </defs>
    <g id="구성_요소-4" data-name="구성 요소-4" transform="translate(-35.307 -714.05)">
        <path id="패스_1024" d="M54.43 725.471a.557.557 0 0 0-.558.557v9.934h-5.983v-6.236a.557.557 0 0 0-.557-.557h-4.368a.557.557 0 0 0-.558.557v4.945a.557.557 0 0 0 .557.557.557.557 0 0 0 .557-.557v-4.387h3.253v5.678h-10.35v-13.648l8.725-6.992 8.933 7.159a.558.558 0 1 0 .7-.87l-9.281-7.439a.558.558 0 0 0-.7 0l-9.282 7.439a.559.559 0 0 0-.21.435v14.473a.558.558 0 0 0 .558.558H54.43a.557.557 0 0 0 .557-.557v-10.492a.556.556 0 0 0-.557-.557z" class="cls-1" data-name="패스 1024"/>
    </g>
</svg>
