<svg xmlns="http://www.w3.org/2000/svg" width="19.923" height="26.804" viewBox="0 0 19.923 26.804">
    <defs>
        <style>
            .cls-1{fill:#221f53;stroke:#221f53;stroke-miterlimit:10}
        </style>
    </defs>
    <g id="구성_요소-5" data-name="구성 요소-5" transform="translate(-114.491 -54.975)">
        <path id="패스_1009" d="M124.452 55.475a9.472 9.472 0 0 0-9.461 9.462c0 5.083 8.757 15.735 9.13 16.186a.43.43 0 0 0 .663 0c.373-.45 9.13-11.1 9.13-16.186a9.473 9.473 0 0 0-9.462-9.462zm0 24.69c-1.618-2.02-8.6-10.984-8.6-15.228a8.6 8.6 0 1 1 17.2 0c.001 4.244-6.981 13.208-8.6 15.228z" class="cls-1" data-name="패스 1009"/>
        <path id="패스_1008" d="M124.452 58.892a6.044 6.044 0 0 0-6.044 6.044 6.044 6.044 0 0 0 6.044 6.044 6.045 6.045 0 0 0 6.045-6.044 6.051 6.051 0 0 0-6.045-6.044zm0 11.378a5.333 5.333 0 0 1-5.333-5.333 5.333 5.333 0 0 1 5.333-5.333 5.334 5.334 0 0 1 5.334 5.333 5.341 5.341 0 0 1-5.334 5.334z" class="cls-1" data-name="패스 1008"/>
    </g>
</svg>
