<svg xmlns="http://www.w3.org/2000/svg" width="19.992" height="20.838" viewBox="0 0 19.992 20.838">
    <defs>
        <style>
            .cls-1{fill:#221f53;stroke:#1f244e;stroke-miterlimit:10;stroke-width:.25px}
        </style>
    </defs>
    <g id="그룹_387" data-name="그룹 387" transform="translate(-293.876 -61.352)">
        <g id="그룹_363" data-name="그룹 363">
            <path id="패스_1071" d="M313.3 68.339h-3v-6h3a.429.429 0 1 0 .02-.858h-3.452a.124.124 0 0 0-.038.009.436.436 0 0 0-.078.017.474.474 0 0 0-.124.06.6.6 0 0 0-.065.047l-3.384 2.54a.225.225 0 0 0-.047.034l-3.4 2.548a.209.209 0 0 0-.03.025l-3.413 2.56a.189.189 0 0 1-.017.013l-3.431 2.57-1.67 1.248a.429.429 0 0 0 .515.686l1.029-.772v5.572h-1.286a.429.429 0 0 0-.429.429v2.573a.429.429 0 0 0 .429.429H313.3a.43.43 0 0 0 .429-.429V68.768a.43.43 0 0 0-.429-.429zm-6.431-3.639l2.573-1.93v5.567h-.429a.431.431 0 0 0-.429.429v2.145h-1.716V64.7zm-3.432 2.573l2.574-1.93v5.568h-.429a.429.429 0 0 0-.429.429v1.716h-1.716v-5.781zm-3.431 2.57l2.573-1.931v5.144h-.858a.43.43 0 0 0-.429.429v2.575h-1.286zm-3.432 2.573l2.573-1.93v5.574h-.857a.429.429 0 0 0-.429.429v2.145h-1.287zm16.3 8.789h-18.016v-1.714h3.432a.43.43 0 0 0 .429-.429v-2.145h3a.429.429 0 0 0 .429-.429v-2.573h3.432a.431.431 0 0 0 .429-.429V71.77h3a.429.429 0 0 0 .429-.429V69.2h3.432z" class="cls-1" data-name="패스 1071"/>
        </g>
    </g>
</svg>
