<svg xmlns="http://www.w3.org/2000/svg" width="21.191" height="22.852" viewBox="0 0 21.191 22.852">
    <defs>
        <style>
            .cls-1{fill:#221f53;stroke:#1d234c;stroke-miterlimit:10;stroke-width:.25px}
        </style>
    </defs>
    <g id="그룹_388" data-name="그룹 388" transform="translate(-324.12 -59.338)">
        <path id="패스_1072" d="M331.62 70.908c0 .334.175.605.387.605h1.549c.214 0 .387-.271.387-.605v-3.63c0-.334-.174-.605-.387-.6h-1.549c-.214 0-.387.271-.387.6v3.629zm.774-3.025h.774V70.3h-.775z" class="cls-1" data-name="패스 1072"/>
        <path id="패스_1073" d="M325.977 73.848c0 .334.175.605.387.6h1.549c.214 0 .387-.271.387-.605v-3.625c0-.334-.174-.605-.387-.605h-1.549c-.214 0-.387.271-.387.605v3.63zm.774-3.025h.774v2.42h-.775z" class="cls-1" data-name="패스 1073"/>
        <path id="패스_1074" d="M341.266 73.848c0 .334.174.605.387.6h1.547c.213 0 .387-.271.387-.605v-3.625c0-.334-.175-.605-.387-.605h-1.549c-.214 0-.387.271-.387.605v3.63zm.773-3.025h.775v2.42h-.775z" class="cls-1" data-name="패스 1074"/>
        <path id="패스_1075" d="M329.108 66.766l5.607-3.367 5.61 3.364a.387.387 0 0 0 .4-.664l-5.62-3.37v-2.492h1.936v.775h-1.164a.387.387 0 0 0 0 .774h1.549a.387.387 0 0 0 .387-.387V59.85a.388.388 0 0 0-.388-.387h-2.71a.387.387 0 0 0-.387.387v2.879l-5.621 3.371a.387.387 0 0 0 .387.67l.012-.006z" class="cls-1" data-name="패스 1075"/>
        <path id="패스_1076" d="M330.073 77.723V66.251a.387.387 0 0 0-.774 0v11.472a.387.387 0 1 0 .774.02z" class="cls-1" data-name="패스 1076"/>
        <path id="패스_1077" d="M328.138 82.065h13.164a.387.387 0 0 0 0-.775h-3.485v-3.874h.388a.387.387 0 1 0 0-.774h-6.969a.388.388 0 0 0 0 .775h.387v3.871h-3.485a.388.388 0 0 0 0 .775zm6.969-2.325a.387.387 0 0 0 0-.774v-1.549h1.935v3.872h-1.935zm-2.707-2.322h1.936v1.549a.387.387 0 0 0 0 .774v1.549H332.4z" class="cls-1" data-name="패스 1077"/>
        <path id="패스_1078" d="M344.8 66.922a.389.389 0 0 0-.387.387v.391h-4.263a.387.387 0 1 0 0 .774h4.258v12.777a.387.387 0 0 0 .774 0V67.313a.388.388 0 0 0-.382-.391z" class="cls-1" data-name="패스 1078"/>
        <path id="패스_1079" d="M324.637 66.922a.387.387 0 0 1 .387.387v.391h4.258a.387.387 0 1 1 0 .774h-4.26v12.777a.387.387 0 0 1-.774 0V67.313a.388.388 0 0 1 .388-.388z" class="cls-1" data-name="패스 1079"/>
        <path id="패스_1080" d="M335.492 70.907c0 .334.174.605.387.605h1.549c.214 0 .387-.271.387-.605v-3.629c0-.334-.175-.605-.388-.605h-1.548c-.214 0-.387.271-.387.605v3.629zm.773-3.025h.775V70.3h-.773v-2.417z" class="cls-1" data-name="패스 1080"/>
        <path id="패스_1081" d="M340.14 77.729V66.114a.387.387 0 1 0-.774 0v11.615a.388.388 0 0 0 .775 0z" class="cls-1" data-name="패스 1081"/>
    </g>
</svg>
